<svg version="1.1" id="Layer_1" xmlns="http://www.w3.org/2000/svg" xmlns:xlink="http://www.w3.org/1999/xlink" x="0px" y="0px"
	 width="100%" viewBox="0 0 512 512" enable-background="new 0 0 512 512" xml:space="preserve">
<path fill="none" opacity="1.000000" stroke="none" 
	d="
M513.000000,146.000000 
	C513.000000,268.291107 513.000000,390.582245 513.000000,512.936646 
	C342.434479,512.936646 171.868912,512.936646 1.000000,512.936646 
	C1.000000,390.976837 1.000000,268.953430 1.340790,146.556061 
	C8.993788,149.718979 12.462868,156.369263 14.923221,163.469940 
	C18.557871,173.959686 19.256411,184.944031 19.075373,196.443390 
	C19.329660,206.150055 19.748135,215.390533 19.978102,224.635696 
	C20.370087,240.394287 23.387941,255.743591 27.078642,270.983551 
	C28.824396,278.192261 33.316628,283.488770 40.582684,284.801208 
	C48.154190,286.168732 54.697067,283.515900 59.192257,276.619843 
	C61.034245,273.794037 63.693798,271.501190 65.991440,269.394104 
	C68.979614,281.261444 71.158218,292.983185 75.082901,304.087799 
	C87.869553,340.266632 110.729126,368.416290 144.363586,387.986877 
	C145.427643,389.651886 146.124466,391.156097 147.038773,392.513855 
	C152.120056,400.059845 159.091278,405.489899 166.904205,410.439819 
	C167.264679,412.446960 167.385132,414.101288 167.889145,415.629150 
	C176.301071,441.129028 195.864410,454.166138 220.109192,462.422119 
	C228.192215,477.151001 240.939606,484.514709 256.844330,484.541443 
	C273.162537,484.568909 286.137054,477.047150 294.421051,462.067078 
	C310.387848,457.237854 323.886108,448.986572 334.603241,436.731628 
	C341.234192,429.149231 346.331665,420.504852 347.459381,409.878510 
	C356.900848,404.196472 364.843842,397.461182 370.180725,387.718872 
	C380.400909,380.228302 391.047516,373.596436 399.996460,365.163116 
	C416.815063,349.313721 429.615509,330.247803 437.476227,308.480835 
	C442.095428,295.689819 444.590668,282.131744 448.362274,269.041412 
	C450.874847,271.979523 453.034271,274.820648 455.263763,277.605682 
	C463.917084,288.415131 480.642731,287.995331 485.043976,274.953308 
	C489.240936,262.516785 490.355621,249.040100 492.901001,235.597244 
	C493.651123,229.010727 494.603394,222.863007 494.944977,216.681534 
	C495.781128,201.548935 495.604767,186.320587 497.254303,171.286423 
	C498.394257,160.896759 502.446381,151.112854 513.000000,146.000000 
z"/>
<path fill="none" opacity="1.000000" stroke="none" 
	d="
M1.000000,141.000000 
	C1.000000,94.359108 1.000000,47.718216 1.000000,1.038661 
	C171.546616,1.038661 342.093262,1.038661 513.000000,1.038661 
	C513.000000,47.353607 513.000000,93.708145 512.647217,140.377686 
	C510.830383,135.371948 509.714905,129.925003 507.842010,124.752296 
	C499.716248,102.309578 490.606750,80.200066 474.777130,61.978634 
	C467.402435,53.489616 458.745453,45.651924 449.388458,39.452869 
	C434.233917,29.412861 416.933441,27.493900 399.147278,31.029125 
	C384.249908,33.990162 369.972382,38.800167 356.195404,46.008099 
	C345.854797,49.709591 335.798737,50.352901 325.302277,48.006622 
	C309.075745,44.379486 292.839630,40.170059 276.372864,38.434357 
	C262.461029,36.967953 248.056030,37.440392 234.156601,39.255142 
	C214.604385,41.807938 195.317764,46.395157 175.516571,50.066788 
	C169.145981,48.653717 163.176392,47.286243 157.006607,45.629967 
	C154.915390,44.549606 153.024338,43.758057 151.032303,42.729950 
	C150.635483,42.382591 150.339645,42.271793 149.734177,42.079353 
	C148.997849,41.984131 148.571152,41.970547 147.954437,41.638573 
	C130.636505,34.641560 113.514595,28.546473 94.517601,29.860889 
	C78.253685,30.986202 64.604431,37.555378 52.718742,47.949825 
	C31.972994,66.092705 19.334953,89.596718 9.989565,115.078773 
	C6.841179,123.663490 3.988065,132.356491 1.000000,141.000000 
z"/>
<path fill="#965A50" opacity="1.000000" stroke="none" 
	d="
M356.561157,46.025402 
	C369.972382,38.800167 384.249908,33.990162 399.147278,31.029125 
	C416.933441,27.493900 434.233917,29.412861 449.388458,39.452869 
	C458.745453,45.651924 467.402435,53.489616 474.777130,61.978634 
	C490.606750,80.200066 499.716248,102.309578 507.842010,124.752296 
	C509.714905,129.925003 510.830383,135.371948 512.647217,140.846344 
	C513.000000,142.388885 513.000000,143.777786 513.000000,145.583344 
	C502.446381,151.112854 498.394257,160.896759 497.254303,171.286423 
	C495.604767,186.320587 495.781128,201.548935 494.944977,216.681534 
	C494.603394,222.863007 493.651123,229.010727 492.564056,235.548996 
	C489.901581,234.255524 487.501312,232.754440 485.426117,230.891235 
	C471.175934,218.096680 464.981049,200.807175 460.182404,183.168869 
	C453.846985,159.881943 449.146759,136.150314 442.819122,112.861008 
	C438.242798,96.017601 431.435120,80.058334 420.014282,66.279114 
	C408.183105,52.004852 393.386200,44.862579 374.998047,45.038300 
	C369.047577,45.095158 363.101807,45.639454 357.005188,45.972286 
	C356.856506,45.983788 356.561157,46.025402 356.561157,46.025402 
z"/>
<path fill="#824641" opacity="1.000000" stroke="none" 
	d="
M1.000000,141.416656 
	C3.988065,132.356491 6.841179,123.663490 9.989565,115.078773 
	C19.334953,89.596718 31.972994,66.092705 52.718742,47.949825 
	C64.604431,37.555378 78.253685,30.986202 94.517601,29.860889 
	C113.514595,28.546473 130.636505,34.641560 147.499847,41.654022 
	C145.573456,41.947205 143.854767,42.168846 142.259094,41.822998 
	C132.473312,39.702045 123.117020,41.739109 114.049126,45.051914 
	C98.690819,50.662815 86.657410,60.896267 76.227242,73.245697 
	C64.464317,87.173119 55.266582,102.763763 47.597618,119.150688 
	C36.475727,142.915741 28.273252,167.807266 21.100868,193.033417 
	C20.794041,194.112579 19.818689,195.001678 19.154766,195.979309 
	C19.256411,184.944031 18.557871,173.959686 14.923221,163.469940 
	C12.462868,156.369263 8.993788,149.718979 1.340790,146.091049 
	C1.000000,144.611115 1.000000,143.222214 1.000000,141.416656 
z"/>
<path fill="#F5DCB4" opacity="1.000000" stroke="none" 
	d="
M175.917572,50.112381 
	C195.317764,46.395157 214.604385,41.807938 234.156601,39.255142 
	C248.056030,37.440392 262.461029,36.967953 276.372864,38.434357 
	C292.839630,40.170059 309.075745,44.379486 325.302277,48.006622 
	C335.798737,50.352901 345.854797,49.709591 356.195404,46.008099 
	C356.561157,46.025402 356.856506,45.983788 357.039093,46.327160 
	C358.896362,47.392174 360.543549,48.187492 362.250031,48.823868 
	C376.398895,54.100201 387.746216,62.957237 396.332672,75.371094 
	C408.669037,93.206413 413.571472,113.713875 416.935974,134.591766 
	C421.027771,159.982880 424.024689,185.550812 428.143616,210.937042 
	C431.240173,230.021988 436.583954,248.511017 446.856232,265.219757 
	C447.514679,266.290802 447.658234,267.678375 448.041290,268.918701 
	C444.590668,282.131744 442.095428,295.689819 437.476227,308.480835 
	C429.615509,330.247803 416.815063,349.313721 399.996460,365.163116 
	C391.047516,373.596436 380.400909,380.228302 370.221130,387.332855 
	C370.869415,381.988922 372.727905,376.960022 372.589081,371.986877 
	C372.216187,358.632782 365.136505,348.660034 354.730865,340.871552 
	C340.430847,330.168213 323.806976,327.375000 306.450073,326.535645 
	C305.905060,318.128906 302.062744,311.817413 295.960236,307.078094 
	C278.145996,293.243134 258.120880,291.698303 236.614044,297.105957 
	C221.490387,302.176941 209.420654,309.872253 206.538345,327.006378 
	C186.294373,327.478302 167.930374,331.937195 152.714981,345.878662 
	C149.599854,341.640778 146.181488,337.845764 144.095917,333.422333 
	C137.891037,320.261902 131.236984,307.180634 126.632141,293.440460 
	C122.943146,282.433014 121.494102,270.574615 119.946304,258.974396 
	C117.850410,243.266342 115.812813,227.473969 115.220352,211.662689 
	C114.586975,194.759369 115.423317,177.783035 116.056137,160.854965 
	C116.771317,141.723999 120.340790,123.054810 126.889198,105.038155 
	C133.949005,85.614510 144.350342,68.542961 162.325943,57.222626 
	C166.638657,54.506645 171.375687,52.464455 175.917572,50.112381 
M372.600189,233.315857 
	C372.702301,227.194839 373.194733,221.050720 372.833923,214.957108 
	C371.721405,196.168121 355.377136,184.409317 339.214355,187.194870 
	C325.041077,190.792297 315.844452,200.313202 315.128815,212.829208 
	C314.702667,220.281952 314.661346,227.804886 315.143707,235.251160 
	C316.098206,249.985977 329.601685,261.479340 344.827728,261.002533 
	C359.592468,260.540192 371.717560,248.554794 372.600189,233.315857 
M199.017624,234.105362 
	C199.057953,227.784683 198.954926,221.459183 199.167160,215.144287 
	C199.676193,199.998688 184.647766,183.887405 165.152100,187.363037 
	C150.880508,191.009155 143.018799,199.483994 141.628510,214.091721 
	C140.939682,221.329208 141.161484,228.765106 141.940155,236.007050 
	C143.513504,250.639542 156.096115,261.238190 170.793625,261.030823 
	C185.396164,260.824829 197.377151,249.707870 199.017624,234.105362 
z"/>
<path fill="#D4AF91" opacity="1.000000" stroke="none" 
	d="
M153.020905,346.034302 
	C167.930374,331.937195 186.294373,327.478302 206.640717,327.381287 
	C208.143921,335.772766 211.791962,342.413208 218.423920,346.903412 
	C224.722549,351.167999 231.473343,354.774231 238.087433,358.561462 
	C251.684250,366.347015 265.041534,365.410126 278.505432,357.215118 
	C283.027527,354.789795 287.346497,352.655121 291.322205,350.005432 
	C299.581268,344.500977 306.174042,337.748932 306.517090,326.957275 
	C323.806976,327.375000 340.430847,330.168213 354.730865,340.871552 
	C365.136505,348.660034 372.216187,358.632782 372.589081,371.986877 
	C372.727905,376.960022 370.869415,381.988922 369.881256,387.378418 
	C364.843842,397.461182 356.900848,404.196472 347.073547,409.895874 
	C341.717377,411.710876 337.121002,413.613892 332.366302,414.956116 
	C321.093933,418.138245 309.614899,418.837738 297.619202,416.984680 
	C285.757111,414.906464 275.447632,410.210480 265.631836,404.005981 
	C260.060394,400.484344 253.621933,400.554260 248.100235,404.127991 
	C238.180908,410.547974 227.631561,415.073395 215.549072,417.035583 
	C204.198196,418.797272 193.410919,418.220062 182.802902,415.109589 
	C177.446671,413.539032 172.160507,411.729584 166.842651,410.028198 
	C159.091278,405.489899 152.120056,400.059845 147.038773,392.513855 
	C146.124466,391.156097 145.427643,389.651886 144.336655,387.600037 
	C143.242477,381.523041 141.846024,376.069244 141.772293,370.597656 
	C141.640411,360.812286 146.791351,353.094025 153.020905,346.034302 
z"/>
<path fill="#965A50" opacity="1.000000" stroke="none" 
	d="
M19.075371,196.443390 
	C19.818689,195.001678 20.794041,194.112579 21.100868,193.033417 
	C28.273252,167.807266 36.475727,142.915741 47.597618,119.150688 
	C55.266582,102.763763 64.464317,87.173119 76.227242,73.245697 
	C86.657410,60.896267 98.690819,50.662815 114.049126,45.051914 
	C123.117020,41.739109 132.473312,39.702045 142.259094,41.822998 
	C143.854767,42.168846 145.573456,41.947205 147.689880,41.972412 
	C148.571152,41.970547 148.997849,41.984131 149.862823,42.275192 
	C150.541916,42.764194 150.819305,42.902142 151.133301,42.966511 
	C153.024338,43.758057 154.915390,44.549606 156.813080,45.947670 
	C155.756882,47.022335 154.721786,47.571533 153.627014,47.946453 
	C137.585236,53.440220 125.102997,63.496632 115.931099,77.648331 
	C104.922493,94.633987 100.259186,113.897331 97.103027,133.474014 
	C93.297935,157.075760 90.683784,180.869141 86.904037,204.475479 
	C83.504478,225.707382 78.522964,246.561264 66.980446,265.201019 
	C66.326439,266.257172 66.299965,267.701965 65.981430,268.965881 
	C63.693798,271.501190 61.034245,273.794037 59.192257,276.619843 
	C54.697067,283.515900 48.154190,286.168732 40.582684,284.801208 
	C33.316628,283.488770 28.824396,278.192261 27.078642,270.983551 
	C23.387941,255.743591 20.370087,240.394287 19.978102,224.635696 
	C19.748135,215.390533 19.329660,206.150055 19.075371,196.443390 
z"/>
<path fill="#E7C9A5" opacity="1.000000" stroke="none" 
	d="
M65.991440,269.394104 
	C66.299965,267.701965 66.326439,266.257172 66.980446,265.201019 
	C78.522964,246.561264 83.504478,225.707382 86.904037,204.475479 
	C90.683784,180.869141 93.297935,157.075760 97.103027,133.474014 
	C100.259186,113.897331 104.922493,94.633987 115.931099,77.648331 
	C125.102997,63.496632 137.585236,53.440220 153.627014,47.946453 
	C154.721786,47.571533 155.756882,47.022335 157.013260,46.236481 
	C163.176392,47.286243 169.145981,48.653717 175.516571,50.066788 
	C171.375687,52.464455 166.638657,54.506645 162.325943,57.222626 
	C144.350342,68.542961 133.949005,85.614510 126.889198,105.038155 
	C120.340790,123.054810 116.771317,141.723999 116.056137,160.854965 
	C115.423317,177.783035 114.586975,194.759369 115.220352,211.662689 
	C115.812813,227.473969 117.850410,243.266342 119.946304,258.974396 
	C121.494102,270.574615 122.943146,282.433014 126.632141,293.440460 
	C131.236984,307.180634 137.891037,320.261902 144.095917,333.422333 
	C146.181488,337.845764 149.599854,341.640778 152.714981,345.878662 
	C146.791351,353.094025 141.640411,360.812286 141.772293,370.597656 
	C141.846024,376.069244 143.242477,381.523041 144.069839,387.371674 
	C110.729126,368.416290 87.869553,340.266632 75.082901,304.087799 
	C71.158218,292.983185 68.979614,281.261444 65.991440,269.394104 
z"/>
<path fill="#834741" opacity="1.000000" stroke="none" 
	d="
M448.362274,269.041412 
	C447.658234,267.678375 447.514679,266.290802 446.856232,265.219757 
	C436.583954,248.511017 431.240173,230.021988 428.143616,210.937042 
	C424.024689,185.550812 421.027771,159.982880 416.935974,134.591766 
	C413.571472,113.713875 408.669037,93.206413 396.332672,75.371094 
	C387.746216,62.957237 376.398895,54.100201 362.250031,48.823868 
	C360.543549,48.187492 358.896362,47.392174 357.187775,46.315659 
	C363.101807,45.639454 369.047577,45.095158 374.998047,45.038300 
	C393.386200,44.862579 408.183105,52.004852 420.014282,66.279114 
	C431.435120,80.058334 438.242798,96.017601 442.819122,112.861008 
	C449.146759,136.150314 453.846985,159.881943 460.182404,183.168869 
	C464.981049,200.807175 471.175934,218.096680 485.426117,230.891235 
	C487.501312,232.754440 489.901581,234.255524 492.488403,235.972427 
	C490.355621,249.040100 489.240936,262.516785 485.043976,274.953308 
	C480.642731,287.995331 463.917084,288.415131 455.263763,277.605682 
	C453.034271,274.820648 450.874847,271.979523 448.362274,269.041412 
z"/>
<path fill="#FF8087" opacity="1.000000" stroke="none" 
	d="
M294.038971,462.112976 
	C286.137054,477.047150 273.162537,484.568909 256.844330,484.541443 
	C240.939606,484.514709 228.192215,477.151001 220.097321,462.035614 
	C215.833435,452.615845 215.585495,443.335327 216.380951,433.922546 
	C227.325607,430.865601 237.875793,427.847260 248.990753,424.667358 
	C248.990753,427.604980 248.957565,430.707489 248.998032,433.809052 
	C249.070312,439.351471 251.988083,442.610046 256.900726,442.700348 
	C261.724884,442.789032 264.912476,439.399048 264.999237,434.007568 
	C265.051086,430.785645 265.008789,427.562256 265.008789,424.667175 
	C276.529694,427.911041 287.271820,430.935638 298.021362,434.430481 
	C298.817383,444.282104 297.408508,453.341278 294.038971,462.112976 
z"/>
<path fill="#BD8E78" opacity="1.000000" stroke="none" 
	d="
M294.421051,462.067078 
	C297.408508,453.341278 298.817383,444.282104 298.030579,433.967407 
	C298.025574,427.705048 298.018799,422.376038 298.012024,417.046997 
	C309.614899,418.837738 321.093933,418.138245 332.366302,414.956116 
	C337.121002,413.613892 341.717377,411.710876 346.771606,410.045410 
	C346.331665,420.504852 341.234192,429.149231 334.603241,436.731628 
	C323.886108,448.986572 310.387848,457.237854 294.421051,462.067078 
z"/>
<path fill="#BD8E78" opacity="1.000000" stroke="none" 
	d="
M215.986496,433.961182 
	C215.585495,443.335327 215.833435,452.615845 219.949188,461.726440 
	C195.864410,454.166138 176.301071,441.129028 167.889145,415.629150 
	C167.385132,414.101288 167.264679,412.446960 166.904205,410.439819 
	C172.160507,411.729584 177.446671,413.539032 182.802902,415.109589 
	C193.410919,418.220062 204.198196,418.797272 215.539017,417.497986 
	C215.973999,423.301575 215.980240,428.631378 215.986496,433.961182 
z"/>
<path fill="#824641" opacity="1.000000" stroke="none" 
	d="
M151.032303,42.729950 
	C150.819305,42.902142 150.541916,42.764194 150.172485,42.356827 
	C150.339645,42.271793 150.635483,42.382591 151.032303,42.729950 
z"/>
<path fill="#5E5460" opacity="1.000000" stroke="none" 
	d="
M306.450073,326.535645 
	C306.174042,337.748932 299.581268,344.500977 291.322205,350.005432 
	C287.346497,352.655121 283.027527,354.789795 278.420776,356.828857 
	C277.052185,355.961426 276.188080,355.231079 275.192291,354.913116 
	C261.370178,350.499603 248.059082,345.227417 238.760056,333.244415 
	C232.626434,325.340454 229.822342,316.743164 233.553391,306.853851 
	C234.769348,303.630890 235.844269,300.354706 236.983688,297.102875 
	C258.120880,291.698303 278.145996,293.243134 295.960236,307.078094 
	C302.062744,311.817413 305.905060,318.128906 306.450073,326.535645 
z"/>
<path fill="#4D4150" opacity="1.000000" stroke="none" 
	d="
M198.817047,235.028412 
	C197.377151,249.707870 185.396164,260.824829 170.793625,261.030823 
	C156.096115,261.238190 143.513504,250.639542 141.940155,236.007050 
	C141.161484,228.765106 140.939682,221.329208 141.628510,214.091721 
	C143.018799,199.483994 150.880508,191.009155 165.565063,187.862427 
	C166.089020,190.779160 166.200012,193.196487 166.033844,195.787628 
	C155.011917,202.725998 155.098541,211.938141 165.980927,219.645569 
	C165.993622,222.579453 165.939575,225.066559 166.019196,227.549377 
	C166.248138,234.688049 170.530334,241.410736 176.900009,243.297958 
	C183.634415,245.293243 189.998459,244.367798 194.949692,238.601440 
	C196.085419,237.278732 197.520004,236.212616 198.817047,235.028412 
z"/>
<path fill="#4D414F" opacity="1.000000" stroke="none" 
	d="
M372.147095,233.998001 
	C371.717560,248.554794 359.592468,260.540192 344.827728,261.002533 
	C329.601685,261.479340 316.098206,249.985977 315.143707,235.251160 
	C314.661346,227.804886 314.702667,220.281952 315.128815,212.829208 
	C315.844452,200.313202 325.041077,190.792297 339.594971,187.663696 
	C340.036346,190.543015 340.097046,192.953522 339.903687,195.574539 
	C334.544556,198.059540 331.319214,201.904663 331.355621,207.548019 
	C331.393768,213.448959 335.042847,217.158340 340.168854,219.967224 
	C340.065582,223.272705 339.968140,226.087006 340.010223,228.899185 
	C340.140533,237.613434 346.353241,243.466766 354.979584,244.110535 
	C363.322021,244.733154 368.208740,240.388779 372.147095,233.998001 
z"/>
<path fill="#4C404F" opacity="1.000000" stroke="none" 
	d="
M236.614044,297.105957 
	C235.844269,300.354706 234.769348,303.630890 233.553391,306.853851 
	C229.822342,316.743164 232.626434,325.340454 238.760056,333.244415 
	C248.059082,345.227417 261.370178,350.499603 275.192291,354.913116 
	C276.188080,355.231079 277.052185,355.961426 278.062195,356.886292 
	C265.041534,365.410126 251.684250,366.347015 238.087433,358.561462 
	C231.473343,354.774231 224.722549,351.167999 218.423920,346.903412 
	C211.791962,342.413208 208.143921,335.772766 207.089203,327.374390 
	C209.420654,309.872253 221.490387,302.176941 236.614044,297.105957 
z"/>
<path fill="#5E5461" opacity="1.000000" stroke="none" 
	d="
M340.157745,195.364029 
	C340.097046,192.953522 340.036346,190.543015 339.968811,187.688019 
	C355.377136,184.409317 371.721405,196.168121 372.833923,214.957108 
	C373.194733,221.050720 372.702301,227.194839 372.373657,233.656921 
	C368.208740,240.388779 363.322021,244.733154 354.979584,244.110535 
	C346.353241,243.466766 340.140533,237.613434 340.010223,228.899185 
	C339.968140,226.087006 340.065582,223.272705 340.576904,220.022598 
	C343.784515,219.181412 346.790588,219.369843 349.188873,218.253098 
	C354.723389,215.675980 357.282562,209.392166 355.606842,204.058517 
	C353.631500,197.771500 348.035736,194.622269 340.157745,195.364029 
z"/>
<path fill="#5E5461" opacity="1.000000" stroke="none" 
	d="
M166.311020,195.613831 
	C166.200012,193.196487 166.089020,190.779160 165.979156,187.832062 
	C184.647766,183.887405 199.676193,199.998688 199.167160,215.144287 
	C198.954926,221.459183 199.057953,227.784683 198.917328,234.566895 
	C197.520004,236.212616 196.085419,237.278732 194.949692,238.601440 
	C189.998459,244.367798 183.634415,245.293243 176.900009,243.297958 
	C170.530334,241.410736 166.248138,234.688049 166.019196,227.549377 
	C165.939575,225.066559 165.993622,222.579453 166.364777,219.670227 
	C172.991669,220.501938 177.385773,218.851166 180.566040,214.023941 
	C183.423920,209.686035 183.498596,205.279968 180.600235,200.968811 
	C177.141586,195.824249 172.318787,194.077789 166.311020,195.613831 
z"/>
<path fill="#E6656E" opacity="1.000000" stroke="none" 
	d="
M216.380951,433.922546 
	C215.980240,428.631378 215.973999,423.301575 215.977814,417.509369 
	C227.631561,415.073395 238.180908,410.547974 248.100235,404.127991 
	C253.621933,400.554260 260.060394,400.484344 265.631836,404.005981 
	C275.447632,410.210480 285.757111,414.906464 297.619202,416.984680 
	C298.018799,422.376038 298.025574,427.705048 298.023132,433.497162 
	C287.271820,430.935638 276.529694,427.911041 265.008789,424.667175 
	C265.008789,427.562256 265.051086,430.785645 264.999237,434.007568 
	C264.912476,439.399048 261.724884,442.789032 256.900726,442.700348 
	C251.988083,442.610046 249.070312,439.351471 248.998032,433.809052 
	C248.957565,430.707489 248.990753,427.604980 248.990753,424.667358 
	C237.875793,427.847260 227.325607,430.865601 216.380951,433.922546 
z"/>
<path fill="#FBFBFB" opacity="1.000000" stroke="none" 
	d="
M166.033844,195.787628 
	C172.318787,194.077789 177.141586,195.824249 180.600235,200.968811 
	C183.498596,205.279968 183.423920,209.686035 180.566040,214.023941 
	C177.385773,218.851166 172.991669,220.501938 166.359070,219.221466 
	C155.098541,211.938141 155.011917,202.725998 166.033844,195.787628 
z"/>
<path fill="#FBFBFB" opacity="1.000000" stroke="none" 
	d="
M339.903687,195.574539 
	C348.035736,194.622269 353.631500,197.771500 355.606842,204.058517 
	C357.282562,209.392166 354.723389,215.675980 349.188873,218.253098 
	C346.790588,219.369843 343.784515,219.181412 340.646484,219.530426 
	C335.042847,217.158340 331.393768,213.448959 331.355621,207.548019 
	C331.319214,201.904663 334.544556,198.059540 339.903687,195.574539 
z"/>
</svg>